<svg xmlns="http://www.w3.org/2000/svg" version="1.1" xmlns:xlink="http://www.w3.org/1999/xlink" xmlns:svgjs="http://svgjs.dev/svgjs" width="1920" height="1080" preserveAspectRatio="none" viewBox="0 0 1920 1080"><g mask="url(&quot;#SvgjsMask1208&quot;)" fill="none"><rect width="1920" height="1080" x="0" y="0" fill="rgba(238, 248, 255, 1)"></rect><path d="M765.28 270.79 a194.4 194.4 0 1 0 388.8 0 a194.4 194.4 0 1 0 -388.8 0z" fill="rgba(172, 208, 255, 0.6)" class="triangle-float3"></path><path d="M-219.46 957.52 a341.46 341.46 0 1 0 682.92 0 a341.46 341.46 0 1 0 -682.92 0z" fill="rgba(172, 208, 255, 0.6)" class="triangle-float2"></path><path d="M330.96 585.64 a311.96 311.96 0 1 0 623.92 0 a311.96 311.96 0 1 0 -623.92 0z" fill="rgba(172, 208, 255, 0.6)" class="triangle-float3"></path><path d="M1401.63 769.02 a341.95 341.95 0 1 0 683.9 0 a341.95 341.95 0 1 0 -683.9 0z" fill="rgba(172, 208, 255, 0.6)" class="triangle-float3"></path></g><defs><mask id="SvgjsMask1208"><rect width="1920" height="1080" fill="#ffffff"></rect></mask></defs></svg>